<svg version="1.1" id="Layer_1" xmlns="http://www.w3.org/2000/svg" xmlns:xlink="http://www.w3.org/1999/xlink" x="0px" y="0px"
	 width="100%" viewBox="0 0 512 512" enable-background="new 0 0 512 512" xml:space="preserve">
<path fill="#000000" opacity="1.000000" stroke="none" 
	d="
M274.000000,513.000000 
	C182.688828,513.000000 91.877655,513.000000 1.033240,513.000000 
	C1.033240,342.397125 1.033240,171.794266 1.033240,1.095694 
	C171.561188,1.095694 342.122467,1.095694 512.841858,1.095694 
	C512.841858,171.666550 512.841858,342.333252 512.841858,513.000000 
	C433.460907,513.000000 353.980438,513.000000 274.000000,513.000000 
M420.008514,470.666290 
	C420.008514,470.666290 420.476135,470.836456 420.476135,470.836456 
	C420.476135,470.836456 420.949463,470.682709 421.801697,470.773407 
	C423.224823,470.720306 424.647980,470.667236 426.542664,470.723145 
	C426.893433,470.644592 427.120300,470.433075 427.641571,470.066559 
	C427.641571,470.066559 427.993317,469.838989 428.715027,469.931122 
	C430.187683,469.306946 431.660309,468.682770 433.834564,468.036896 
	C435.844727,466.657013 437.854919,465.277130 438.888794,464.567444 
	C440.345367,466.529816 441.442871,469.478821 442.886627,469.659363 
	C446.303772,470.086761 450.557007,471.474731 453.009186,466.043121 
	C452.949432,456.039978 452.889679,446.036835 452.897766,435.165833 
	C452.952850,423.798401 448.340729,415.156067 440.440430,412.358307 
	C429.997498,408.660065 420.048401,410.447052 410.604370,415.716583 
	C409.644775,416.252045 408.547058,418.093384 408.797394,418.956268 
	C409.587067,421.678589 410.987885,424.223633 412.145477,426.822266 
	C430.921234,418.358917 438.143829,419.953827 439.838470,432.765533 
	C437.553101,432.932770 435.283020,433.098907 432.169098,433.066711 
	C427.781311,434.046387 423.393555,435.026031 418.269226,436.034729 
	C411.406036,438.365265 406.066162,442.191589 404.137604,450.466095 
	C403.213318,461.982117 411.499329,469.874451 419.832031,470.297272 
	C419.832031,470.297272 419.763885,470.233093 420.008514,470.666290 
M343.920074,451.259125 
	C342.134674,446.898346 341.024811,442.065125 335.637146,439.373840 
	C330.484528,437.157013 325.342621,434.914703 320.175110,432.733185 
	C317.226257,431.488342 314.327637,429.459717 315.883972,426.259338 
	C316.869965,424.231812 320.397003,422.122101 322.625763,422.280609 
	C327.893005,422.655212 333.065460,424.362701 338.569336,425.596954 
	C339.773041,422.749908 341.083374,419.650574 342.375519,416.594269 
	C334.465790,411.377197 326.626617,409.376953 317.952484,411.025146 
	C309.934967,412.548492 304.030731,417.704620 303.009033,424.191101 
	C301.610046,433.073090 304.234772,438.059479 313.115509,442.415405 
	C318.260712,444.939148 323.635529,446.994843 329.186310,449.881012 
	C332.505310,453.924835 330.117279,456.631958 326.102600,459.041718 
	C318.398804,460.516815 312.060303,456.945160 306.087616,453.062408 
	C298.732086,461.332977 298.901215,463.197266 308.214447,467.236206 
	C312.506897,469.097717 317.355225,470.631927 321.955963,470.644196 
	C334.388519,470.677338 344.012573,464.808014 343.920074,451.259125 
M117.960297,459.819092 
	C117.977661,461.483612 118.186058,463.172913 117.974327,464.807739 
	C117.466568,468.728333 118.960625,470.484100 122.967842,469.990448 
	C123.952248,469.869141 124.977036,469.866180 125.961075,469.987976 
	C129.933807,470.479767 131.284561,468.680542 131.171143,464.820435 
	C130.985489,458.501007 130.695160,452.128967 131.267380,445.853699 
	C132.829422,428.722900 138.189087,423.332306 150.634079,423.202576 
	C150.634079,419.309631 150.634079,415.417633 150.634079,411.437714 
	C141.368042,409.567108 135.819153,414.380585 131.154037,422.401245 
	C130.969482,418.183044 130.842133,415.272247 130.702805,412.087769 
	C127.544907,412.087769 124.892220,412.222351 122.258720,412.054993 
	C118.664886,411.826630 118.115288,414.118500 118.093170,416.819672 
	C118.059723,420.906921 118.154373,424.995239 118.030479,429.998077 
	C118.060272,439.635223 118.090065,449.272400 117.960297,459.819092 
M157.836868,314.863983 
	C169.367737,315.907806 180.898117,317.835205 192.429581,317.841888 
	C241.213089,317.870087 290.001709,317.631317 338.778595,316.862915 
	C362.796906,316.484497 383.713104,300.199158 389.646698,276.714874 
	C392.603302,265.013123 392.994141,252.497650 393.276337,240.320847 
	C393.827087,216.553787 393.538483,192.765945 393.488770,168.986923 
	C393.467682,158.896606 393.302551,148.802643 392.973846,138.717804 
	C392.419006,121.694649 392.827362,104.534775 390.729980,87.694016 
	C388.135468,66.861465 375.942413,52.321030 356.014862,44.925999 
	C342.872650,40.048958 329.001343,40.160404 315.284241,40.086246 
	C277.633667,39.882690 239.980179,39.855419 202.330185,40.105915 
	C190.070145,40.187485 177.772797,40.897266 165.572556,42.118931 
	C150.961411,43.582012 139.095840,50.459820 129.617874,61.864742 
	C118.970978,74.676231 116.749504,89.916542 116.384445,105.603134 
	C115.911789,125.913422 115.928436,146.240112 116.044930,166.557953 
	C116.228111,198.508514 116.172569,230.472961 117.159218,262.402466 
	C117.960739,288.340759 133.475082,307.702087 157.836868,314.863983 
M66.657898,470.787842 
	C77.208115,470.547455 86.843430,467.979370 94.798492,460.477966 
	C105.060280,450.801331 109.015823,439.016327 107.977562,425.069427 
	C106.542068,405.786743 92.902702,391.262543 73.810471,388.187927 
	C57.416466,385.547821 40.183624,394.220459 32.358479,408.747894 
	C24.504190,423.329468 26.228870,443.236115 36.556980,455.817657 
	C44.125107,465.037018 54.000393,469.759552 66.657898,470.787842 
M208.944778,426.505096 
	C208.944778,421.754913 208.944778,417.004730 208.944778,411.553131 
	C203.984497,413.388367 198.171844,408.845825 196.072876,416.101288 
	C180.933838,406.850342 168.610794,408.887543 158.413315,422.435974 
	C152.067688,430.866852 151.752594,451.510193 161.740036,461.184235 
	C169.039505,468.254669 178.691025,470.800751 188.121063,466.996857 
	C191.036102,465.820984 193.607834,463.794037 196.487625,462.066223 
	C197.694168,475.253387 191.503952,482.470581 178.952240,481.926025 
	C173.335556,481.682343 167.791458,479.765778 161.790070,478.520325 
	C161.183746,480.089294 160.660095,482.014832 159.734802,483.722748 
	C157.659714,487.552826 158.938782,489.798004 162.952316,490.316193 
	C170.611984,491.305176 178.394058,493.118927 185.975693,492.560211 
	C200.527069,491.487885 208.932449,481.240692 208.958511,466.475311 
	C208.981461,453.484833 208.951523,440.494293 208.944778,426.505096 
M237.762650,454.491302 
	C237.762650,448.413239 237.762650,442.335205 237.762650,435.756653 
	C246.920609,435.756653 255.838409,435.756653 265.146057,435.756653 
	C265.146057,431.690948 265.146057,428.120331 265.146057,423.886108 
	C256.131409,423.886108 247.101959,423.886108 237.910706,423.886108 
	C237.910706,415.972656 237.910706,408.709412 237.910706,400.827545 
	C247.289459,400.827545 256.393646,400.556335 265.470367,400.938232 
	C270.241302,401.138947 270.082947,398.543793 269.984436,395.337830 
	C269.885345,392.111084 270.928223,388.709961 265.334686,388.876862 
	C253.197571,389.238922 241.039200,389.141632 228.896011,388.902405 
	C224.884430,388.823364 223.846161,390.104980 223.881760,394.026215 
	C224.087158,416.654327 224.000641,439.284973 224.065414,461.914612 
	C224.091675,471.088593 223.322052,469.413177 231.654587,469.808563 
	C236.210571,470.024719 238.136398,468.538239 237.800018,463.946899 
	C237.594391,461.140289 237.765976,458.306030 237.762650,454.491302 
M384.569427,411.009491 
	C365.542542,407.099091 345.798370,422.506073 348.839935,444.598236 
	C350.463287,456.389496 356.539337,464.342377 366.930695,468.587250 
	C378.119720,473.157867 388.997253,471.217957 398.567291,463.547638 
	C399.484985,462.812103 400.788940,461.155365 400.519043,460.576538 
	C399.117249,457.570129 397.262909,454.774719 395.339600,451.522675 
	C389.117096,457.658966 382.592407,460.538574 374.831818,458.531647 
	C367.280334,456.578827 363.270874,450.934967 362.080780,443.627380 
	C360.830750,435.951721 363.052612,429.232574 369.838562,424.633423 
	C376.476379,420.134613 383.263977,421.014374 389.404999,425.192749 
	C393.223114,427.790619 395.242920,427.341003 397.161621,423.501434 
	C397.957550,421.908691 398.949219,420.413788 400.435211,417.879608 
	C395.130066,415.474152 390.254639,413.263519 384.569427,411.009491 
M478.001251,432.499817 
	C478.001251,418.097504 478.001251,403.695221 478.001251,389.336548 
	C473.299622,389.336548 469.393738,389.336548 465.724518,389.336548 
	C465.419525,389.846130 465.265564,389.983398 465.264954,390.121307 
	C465.172150,411.591919 464.886047,433.065125 465.152588,454.531433 
	C465.218842,459.865540 466.381836,465.814117 472.533234,467.962860 
	C476.581604,469.376984 481.002869,469.723663 485.730286,470.640076 
	C485.730286,466.174957 485.730286,462.902100 485.730286,459.600342 
	C479.011963,457.208740 478.019135,455.791840 478.009583,448.483063 
	C478.003082,443.488617 478.004486,438.494141 478.001251,432.499817 
M291.982574,442.500000 
	C291.982574,432.417023 291.982574,422.334045 291.982574,412.343323 
	C287.235474,412.343323 283.307617,412.343323 278.995728,412.343323 
	C278.995728,428.801147 278.949829,444.931030 279.014374,461.060486 
	C279.048462,469.571289 279.142731,469.452911 287.295715,469.957336 
	C290.776581,470.172699 292.109955,469.047791 292.023712,465.492310 
	C291.846008,458.165558 291.979828,450.831207 291.982574,442.500000 
M285.483917,387.086853 
	C279.308411,388.019501 275.820190,392.560364 277.474518,397.513336 
	C278.821167,401.545166 282.835358,404.504242 286.526886,403.649445 
	C290.334015,402.767822 293.751953,401.131439 293.975494,396.330841 
	C294.203430,391.435333 292.009552,388.716614 285.483917,387.086853 
z"/>
<path fill="#FDFDFD" opacity="1.000000" stroke="none" 
	d="
M157.460724,314.699890 
	C133.475082,307.702087 117.960739,288.340759 117.159218,262.402466 
	C116.172569,230.472961 116.228111,198.508514 116.044930,166.557953 
	C115.928436,146.240112 115.911789,125.913422 116.384445,105.603134 
	C116.749504,89.916542 118.970978,74.676231 129.617874,61.864742 
	C139.095840,50.459820 150.961411,43.582012 165.572556,42.118931 
	C177.772797,40.897266 190.070145,40.187485 202.330185,40.105915 
	C239.980179,39.855419 277.633667,39.882690 315.284241,40.086246 
	C329.001343,40.160404 342.872650,40.048958 356.014862,44.925999 
	C375.942413,52.321030 388.135468,66.861465 390.729980,87.694016 
	C392.827362,104.534775 392.419006,121.694649 392.973846,138.717804 
	C393.302551,148.802643 393.467682,158.896606 393.488770,168.986923 
	C393.538483,192.765945 393.827087,216.553787 393.276337,240.320847 
	C392.994141,252.497650 392.603302,265.013123 389.646698,276.714874 
	C383.713104,300.199158 362.796906,316.484497 338.778595,316.862915 
	C290.001709,317.631317 241.213089,317.870087 192.429581,317.841888 
	C180.898117,317.835205 169.367737,315.907806 157.460724,314.699890 
M328.330750,196.327560 
	C328.330750,196.327560 328.402496,196.313538 328.855682,196.123444 
	C329.125946,195.898849 329.265381,195.610886 329.118408,195.136429 
	C329.118408,195.136429 329.302032,195.211594 329.924438,194.743851 
	C330.048798,184.802292 330.183075,174.860825 330.259949,164.918900 
	C330.262909,164.536880 329.713318,164.150604 329.376953,163.683121 
	C329.376953,163.683121 329.346344,163.593994 329.266846,163.181412 
	C329.145782,162.904770 328.938721,162.730133 328.532196,162.457367 
	C328.532196,162.457367 328.334381,162.339890 328.148407,161.970139 
	C327.947418,161.752747 327.698914,161.646851 327.319824,161.576752 
	C327.319824,161.576752 327.238220,161.499481 326.949219,161.102463 
	C326.651855,160.894684 326.334717,160.858246 325.068481,160.861176 
	C304.504669,160.858551 283.940826,160.822784 263.377106,160.869263 
	C254.931076,160.888351 246.485428,161.084763 237.423447,161.216492 
	C236.590042,162.067001 235.756638,162.917526 234.327209,164.413834 
	C234.178619,173.430786 233.987793,182.447495 233.932053,191.465012 
	C233.924652,192.663940 234.603333,193.867126 234.996658,195.009918 
	C234.996658,195.009918 234.930344,195.017883 235.042984,195.562485 
	C235.337662,195.763702 235.632324,195.964920 235.937683,196.061188 
	C235.937683,196.061188 235.833405,196.077042 236.013397,196.603638 
	C236.340530,196.750198 236.667648,196.896774 236.995071,196.993484 
	C236.995071,196.993484 236.952423,197.019257 237.557114,197.620682 
	C238.533112,197.781799 239.508972,198.082687 240.485123,198.083679 
	C268.140381,198.111938 295.795715,198.123169 323.450867,198.069199 
	C324.672333,198.066818 325.892517,197.424072 327.070312,197.168503 
	C327.070312,197.168503 327.160309,197.209152 327.664856,197.138916 
	C327.878693,196.891434 328.092529,196.643936 328.330750,196.327560 
M214.390350,196.395081 
	C214.390350,196.395081 214.480148,196.321548 214.905746,196.131271 
	C215.156113,195.912613 215.285980,195.637115 215.112457,195.163025 
	C215.112457,195.163025 215.323212,195.258484 215.799438,195.006271 
	C215.883606,194.668930 215.967773,194.331573 216.350403,193.225510 
	C216.281555,183.797638 216.212692,174.369751 216.156357,164.433594 
	C215.942612,164.188278 215.728867,163.942963 215.445877,163.620193 
	C215.445877,163.620193 215.415070,163.520981 215.260193,162.983810 
	C214.832977,162.658737 214.405746,162.333664 213.754456,161.779388 
	C213.754456,161.779388 213.444946,161.696045 213.087173,161.237305 
	C212.718201,161.174591 212.349213,161.111877 211.053238,160.917969 
	C201.706924,160.955673 192.360626,160.993378 182.509003,160.971237 
	C182.262009,161.181839 182.015015,161.392456 181.742203,161.666565 
	C181.742203,161.666565 181.678558,161.692017 181.231216,161.781982 
	C180.929276,161.911194 180.739044,162.135208 180.543839,162.546906 
	C180.543839,162.546906 180.441681,162.655563 180.041077,162.835403 
	C179.796814,163.033432 179.669479,163.289627 179.622681,163.690720 
	C179.622681,163.690720 179.569824,163.768539 178.988144,164.270081 
	C178.852829,174.068756 178.700195,183.867294 178.631638,193.666443 
	C178.628098,194.174713 179.342499,194.688019 179.897507,195.121857 
	C179.897507,195.121857 179.750946,195.244522 179.880814,195.731445 
	C180.150726,195.912994 180.420639,196.094559 180.818726,196.248322 
	C180.818726,196.248322 180.782639,196.122238 180.961166,196.662003 
	C181.301559,196.800980 181.641953,196.939941 181.988083,197.008820 
	C181.988083,197.008820 181.925583,197.041046 182.506073,197.672653 
	C192.324127,197.731964 202.142181,197.791260 212.473297,197.894348 
	C212.694626,197.654694 212.915939,197.415039 213.127609,197.196671 
	C213.127609,197.196671 213.155045,197.201416 213.646866,197.155380 
	C213.992355,197.049652 214.211578,196.822296 214.390350,196.395081 
M234.373993,221.409653 
	C234.211685,230.380234 233.982605,239.350296 233.912704,248.321594 
	C233.872208,253.517136 235.793732,255.656616 241.103821,255.678436 
	C268.750580,255.791992 296.398010,255.772980 324.045105,255.732773 
	C327.966309,255.727066 330.483002,253.470169 330.591034,249.609497 
	C330.823822,241.289307 330.821228,232.953094 330.582062,224.633026 
	C330.459442,220.367050 327.970947,218.032394 323.452240,218.038742 
	C296.138062,218.077103 268.823395,218.002945 241.510300,218.180695 
	C239.280289,218.195206 237.060669,219.810226 234.373993,221.409653 
M262.500000,140.936737 
	C282.481506,140.932007 302.463074,140.893539 322.444427,140.948776 
	C326.855713,140.960968 330.274719,139.553909 330.437714,134.746399 
	C330.719543,126.434692 330.666443,118.102013 330.440308,109.786659 
	C330.323456,105.490158 327.782898,103.167816 323.307373,103.169731 
	C295.832916,103.181503 268.358398,103.131706 240.884140,103.199211 
	C235.955887,103.211319 233.948288,105.365601 233.903564,110.260399 
	C233.835098,117.752716 233.889374,125.246292 233.913605,132.739258 
	C233.932495,138.582870 236.091400,140.832962 242.018448,140.918686 
	C248.511032,141.012573 255.006058,140.937958 262.500000,140.936737 
M181.844391,255.032516 
	C191.799286,255.254776 201.760315,255.761307 211.705795,255.546906 
	C215.243439,255.470657 216.848114,252.306656 216.828812,248.663712 
	C216.788208,240.999603 216.876205,233.334351 216.782883,225.671127 
	C216.716583,220.225845 214.615051,218.156845 209.163651,218.107254 
	C201.499863,218.037537 193.834625,218.057968 186.170532,218.113144 
	C180.493622,218.154022 178.436172,220.172943 178.350876,226.033325 
	C178.244217,233.362625 178.130325,240.704987 178.478577,248.019852 
	C178.585281,250.261017 180.201080,252.430328 181.844391,255.032516 
M209.932434,103.179688 
	C201.933441,103.175529 193.933441,103.092163 185.935837,103.195251 
	C180.670029,103.263123 178.528885,105.298477 178.441010,110.421753 
	C178.309570,118.084770 178.285187,125.755035 178.467972,133.416199 
	C178.595917,138.779419 180.883820,140.878311 186.287842,140.933167 
	C193.952637,141.010986 201.619873,141.009888 209.284256,140.907349 
	C214.332474,140.839813 216.561768,138.706573 216.684814,133.521942 
	C216.866653,125.860802 216.802094,118.192017 216.733032,110.527466 
	C216.697693,106.605705 215.103775,103.759682 209.932434,103.179688 
z"/>
<path fill="#58748F" opacity="1.000000" stroke="none" 
	d="
M66.211349,470.792908 
	C54.000393,469.759552 44.125107,465.037018 36.556980,455.817657 
	C26.228870,443.236115 24.504190,423.329468 32.358479,408.747894 
	C40.183624,394.220459 57.416466,385.547821 73.810471,388.187927 
	C92.902702,391.262543 106.542068,405.786743 107.977562,425.069427 
	C109.015823,439.016327 105.060280,450.801331 94.798492,460.477966 
	C86.843430,467.979370 77.208115,470.547455 66.211349,470.792908 
M41.786079,422.426300 
	C39.466011,432.524231 41.821503,441.669525 48.420696,449.372253 
	C53.682133,455.513580 60.485046,459.352814 69.068741,458.170990 
	C84.499352,456.046509 91.355766,449.262970 94.269737,433.446014 
	C97.176216,417.669769 87.797371,403.196686 71.854660,400.192108 
	C59.327763,397.831238 45.028423,406.206177 41.786079,422.426300 
z"/>
<path fill="#58758F" opacity="1.000000" stroke="none" 
	d="
M208.944855,427.004456 
	C208.951523,440.494293 208.981461,453.484833 208.958511,466.475311 
	C208.932449,481.240692 200.527069,491.487885 185.975693,492.560211 
	C178.394058,493.118927 170.611984,491.305176 162.952316,490.316193 
	C158.938782,489.798004 157.659714,487.552826 159.734802,483.722748 
	C160.660095,482.014832 161.183746,480.089294 161.790070,478.520325 
	C167.791458,479.765778 173.335556,481.682343 178.952240,481.926025 
	C191.503952,482.470581 197.694168,475.253387 196.487625,462.066223 
	C193.607834,463.794037 191.036102,465.820984 188.121063,466.996857 
	C178.691025,470.800751 169.039505,468.254669 161.740036,461.184235 
	C151.752594,451.510193 152.067688,430.866852 158.413315,422.435974 
	C168.610794,408.887543 180.933838,406.850342 196.072876,416.101288 
	C198.171844,408.845825 203.984497,413.388367 208.944778,411.553131 
	C208.944778,417.004730 208.944778,421.754913 208.944855,427.004456 
M188.844299,455.744629 
	C196.592972,450.399750 197.420334,442.638580 196.075623,434.301300 
	C194.711380,425.842957 189.459808,421.660156 180.996597,421.861237 
	C173.723709,422.034058 168.596207,427.104279 167.180115,436.662628 
	C165.481171,448.130280 173.411621,461.274109 188.844299,455.744629 
z"/>
<path fill="#75A170" opacity="1.000000" stroke="none" 
	d="
M237.765411,454.987732 
	C237.765976,458.306030 237.594391,461.140289 237.800018,463.946899 
	C238.136398,468.538239 236.210571,470.024719 231.654587,469.808563 
	C223.322052,469.413177 224.091675,471.088593 224.065414,461.914612 
	C224.000641,439.284973 224.087158,416.654327 223.881760,394.026215 
	C223.846161,390.104980 224.884430,388.823364 228.896011,388.902405 
	C241.039200,389.141632 253.197571,389.238922 265.334686,388.876862 
	C270.928223,388.709961 269.885345,392.111084 269.984436,395.337830 
	C270.082947,398.543793 270.241302,401.138947 265.470367,400.938232 
	C256.393646,400.556335 247.289459,400.827545 237.910706,400.827545 
	C237.910706,408.709412 237.910706,415.972656 237.910706,423.886108 
	C247.101959,423.886108 256.131409,423.886108 265.146057,423.886108 
	C265.146057,428.120331 265.146057,431.690948 265.146057,435.756653 
	C255.838409,435.756653 246.920609,435.756653 237.762650,435.756653 
	C237.762650,442.335205 237.762650,448.413239 237.765411,454.987732 
z"/>
<path fill="#76A071" opacity="1.000000" stroke="none" 
	d="
M384.974304,411.031189 
	C390.254639,413.263519 395.130066,415.474152 400.435211,417.879608 
	C398.949219,420.413788 397.957550,421.908691 397.161621,423.501434 
	C395.242920,427.341003 393.223114,427.790619 389.404999,425.192749 
	C383.263977,421.014374 376.476379,420.134613 369.838562,424.633423 
	C363.052612,429.232574 360.830750,435.951721 362.080780,443.627380 
	C363.270874,450.934967 367.280334,456.578827 374.831818,458.531647 
	C382.592407,460.538574 389.117096,457.658966 395.339600,451.522675 
	C397.262909,454.774719 399.117249,457.570129 400.519043,460.576538 
	C400.788940,461.155365 399.484985,462.812103 398.567291,463.547638 
	C388.997253,471.217957 378.119720,473.157867 366.930695,468.587250 
	C356.539337,464.342377 350.463287,456.389496 348.839935,444.598236 
	C345.798370,422.506073 365.542542,407.099091 384.974304,411.031189 
z"/>
<path fill="#78A373" opacity="1.000000" stroke="none" 
	d="
M452.845612,466.962708 
	C450.557007,471.474731 446.303772,470.086761 442.886627,469.659363 
	C441.442871,469.478821 440.345367,466.529816 438.888794,464.567444 
	C437.854919,465.277130 435.844727,466.657013 433.113251,467.993469 
	C430.445648,467.461731 427.947083,465.687500 427.993317,469.838989 
	C427.993317,469.838989 427.641571,470.066559 427.211945,470.094116 
	C426.484161,470.197571 426.247070,470.361755 426.071106,470.614166 
	C424.647980,470.667236 423.224823,470.720306 421.219604,470.564758 
	C420.366211,470.174286 420.075012,470.133301 419.763885,470.233093 
	C419.763885,470.233093 419.832031,470.297272 419.871704,469.892029 
	C420.151276,465.884949 425.979553,464.738098 424.346924,460.140503 
	C434.493805,460.301025 441.603577,451.738037 439.294098,442.270264 
	C437.908966,442.136322 436.454926,441.995697 435.001038,441.471741 
	C434.338409,438.480621 433.675659,435.872803 433.012909,433.265015 
	C435.283020,433.098907 437.553101,432.932770 439.838470,432.765533 
	C438.143829,419.953827 430.921234,418.358917 412.145477,426.822266 
	C410.987885,424.223633 409.587067,421.678589 408.797394,418.956268 
	C408.547058,418.093384 409.644775,416.252045 410.604370,415.716583 
	C420.048401,410.447052 429.997498,408.660065 440.440430,412.358307 
	C448.340729,415.156067 452.952850,423.798401 452.555054,435.794739 
	C451.836243,437.459106 451.108643,438.506409 451.143097,439.527954 
	C451.320435,444.783691 451.672333,450.034180 452.005188,455.283813 
	C452.252167,459.178894 452.563141,463.069885 452.845612,466.962708 
z"/>
<path fill="#74A170" opacity="1.000000" stroke="none" 
	d="
M478.001831,432.999756 
	C478.004486,438.494141 478.003082,443.488617 478.009583,448.483063 
	C478.019135,455.791840 479.011963,457.208740 485.730286,459.600342 
	C485.730286,462.902100 485.730286,466.174957 485.730286,470.640076 
	C481.002869,469.723663 476.581604,469.376984 472.533234,467.962860 
	C466.381836,465.814117 465.218842,459.865540 465.152588,454.531433 
	C464.886047,433.065125 465.172150,411.591919 465.264954,390.121307 
	C465.265564,389.983398 465.419525,389.846130 465.724518,389.336548 
	C469.393738,389.336548 473.299622,389.336548 478.001251,389.336548 
	C478.001251,403.695221 478.001251,418.097504 478.001831,432.999756 
z"/>
<path fill="#58758F" opacity="1.000000" stroke="none" 
	d="
M118.194603,429.083099 
	C118.154373,424.995239 118.059723,420.906921 118.093170,416.819672 
	C118.115288,414.118500 118.664886,411.826630 122.258720,412.054993 
	C124.892220,412.222351 127.544907,412.087769 130.702805,412.087769 
	C130.842133,415.272247 130.969482,418.183044 131.154037,422.401245 
	C135.819153,414.380585 141.368042,409.567108 150.634079,411.437714 
	C150.634079,415.417633 150.634079,419.309631 150.634079,423.202576 
	C138.189087,423.332306 132.829422,428.722900 131.267380,445.853699 
	C130.695160,452.128967 130.985489,458.501007 131.171143,464.820435 
	C131.284561,468.680542 129.933807,470.479767 125.961075,469.987976 
	C124.977036,469.866180 123.952248,469.869141 122.967842,469.990448 
	C118.960625,470.484100 117.466568,468.728333 117.974327,464.807739 
	C118.186058,463.172913 117.977661,461.483612 118.314697,459.064148 
	C118.510933,448.567169 118.352768,438.825134 118.194603,429.083099 
z"/>
<path fill="#759F71" opacity="1.000000" stroke="none" 
	d="
M328.906982,449.261169 
	C323.635529,446.994843 318.260712,444.939148 313.115509,442.415405 
	C304.234772,438.059479 301.610046,433.073090 303.009033,424.191101 
	C304.030731,417.704620 309.934967,412.548492 317.952484,411.025146 
	C326.626617,409.376953 334.465790,411.377197 342.375519,416.594269 
	C341.083374,419.650574 339.773041,422.749908 338.569336,425.596954 
	C333.065460,424.362701 327.893005,422.655212 322.625763,422.280609 
	C320.397003,422.122101 316.869965,424.231812 315.883972,426.259338 
	C314.327637,429.459717 317.226257,431.488342 320.175110,432.733185 
	C325.342621,434.914703 330.484528,437.157013 335.785217,440.018738 
	C334.533752,441.968567 332.982697,443.148987 331.778442,444.614441 
	C330.632874,446.008484 329.849579,447.700287 328.906982,449.261169 
z"/>
<path fill="#74A170" opacity="1.000000" stroke="none" 
	d="
M291.984039,443.000000 
	C291.979828,450.831207 291.846008,458.165558 292.023712,465.492310 
	C292.109955,469.047791 290.776581,470.172699 287.295715,469.957336 
	C279.142731,469.452911 279.048462,469.571289 279.014374,461.060486 
	C278.949829,444.931030 278.995728,428.801147 278.995728,412.343323 
	C283.307617,412.343323 287.235474,412.343323 291.982574,412.343323 
	C291.982574,422.334045 291.982574,432.417023 291.984039,443.000000 
z"/>
<path fill="#73A06F" opacity="1.000000" stroke="none" 
	d="
M343.893036,452.001709 
	C344.012573,464.808014 334.388519,470.677338 321.955963,470.644196 
	C317.355225,470.631927 312.506897,469.097717 308.214447,467.236206 
	C298.901215,463.197266 298.732086,461.332977 306.087616,453.062408 
	C312.060303,456.945160 318.398804,460.516815 326.626923,459.446167 
	C328.410065,460.506866 329.680206,461.667694 330.923615,461.639740 
	C331.735504,461.621521 333.364899,459.277191 333.169373,458.998657 
	C330.634857,455.387512 332.965576,454.296448 335.836945,453.586426 
	C338.490631,452.930206 341.205261,452.520172 343.893036,452.001709 
z"/>
<path fill="#7BA376" opacity="1.000000" stroke="none" 
	d="
M404.667023,449.887390 
	C406.066162,442.191589 411.406036,438.365265 418.785095,436.324707 
	C421.551300,438.786011 423.801636,440.957306 425.827423,443.395447 
	C417.294189,446.629120 414.809021,453.433105 419.935852,458.945129 
	C416.642120,461.094452 415.429047,458.807098 413.838989,456.798096 
	C412.691162,455.347778 411.083527,454.228668 409.573212,453.107025 
	C408.005402,451.942810 406.307831,450.953308 404.667023,449.887390 
z"/>
<path fill="#749C70" opacity="1.000000" stroke="none" 
	d="
M285.883240,387.087097 
	C292.009552,388.716614 294.203430,391.435333 293.975494,396.330841 
	C293.751953,401.131439 290.334015,402.767822 286.526886,403.649445 
	C282.835358,404.504242 278.821167,401.545166 277.474518,397.513336 
	C275.820190,392.560364 279.308411,388.019501 285.883240,387.087097 
z"/>
<path fill="#709F6E" opacity="1.000000" stroke="none" 
	d="
M404.402313,450.176758 
	C406.307831,450.953308 408.005402,451.942810 409.573212,453.107025 
	C411.083527,454.228668 412.691162,455.347778 413.838989,456.798096 
	C415.429047,458.807098 416.642120,461.094452 420.269043,459.063416 
	C421.871002,459.297638 422.938904,459.730927 424.006836,460.164215 
	C425.979553,464.738098 420.151276,465.884949 419.824951,469.894531 
	C411.499329,469.874451 403.213318,461.982117 404.402313,450.176758 
z"/>
<path fill="#7BA376" opacity="1.000000" stroke="none" 
	d="
M343.906555,451.630432 
	C341.205261,452.520172 338.490631,452.930206 335.836945,453.586426 
	C332.965576,454.296448 330.634857,455.387512 333.169373,458.998657 
	C333.364899,459.277191 331.735504,461.621521 330.923615,461.639740 
	C329.680206,461.667694 328.410065,460.506866 327.080872,459.510681 
	C330.117279,456.631958 332.505310,453.924835 329.046631,449.571106 
	C329.849579,447.700287 330.632874,446.008484 331.778442,444.614441 
	C332.982697,443.148987 334.533752,441.968567 335.974976,440.310883 
	C341.024811,442.065125 342.134674,446.898346 343.906555,451.630432 
z"/>
<path fill="#709F6E" opacity="1.000000" stroke="none" 
	d="
M426.052002,443.128540 
	C423.801636,440.957306 421.551300,438.786011 419.153381,436.310211 
	C423.393555,435.026031 427.781311,434.046387 432.591003,433.165863 
	C433.675659,435.872803 434.338409,438.480621 434.651245,441.689453 
	C431.551544,442.569885 428.801788,442.849213 426.052002,443.128540 
z"/>
<path fill="#7BA376" opacity="1.000000" stroke="none" 
	d="
M452.927399,466.502930 
	C452.563141,463.069885 452.252167,459.178894 452.005188,455.283813 
	C451.672333,450.034180 451.320435,444.783691 451.143097,439.527954 
	C451.108643,438.506409 451.836243,437.459106 452.521118,436.228699 
	C452.889679,446.036835 452.949432,456.039978 452.927399,466.502930 
z"/>
<path fill="#95A1AA" opacity="1.000000" stroke="none" 
	d="
M118.112541,429.540588 
	C118.352768,438.825134 118.510933,448.567169 118.394478,458.609375 
	C118.090065,449.272400 118.060272,439.635223 118.112541,429.540588 
z"/>
<path fill="#709F6E" opacity="1.000000" stroke="none" 
	d="
M428.354187,469.885071 
	C427.947083,465.687500 430.445648,467.461731 432.762451,468.004333 
	C431.660309,468.682770 430.187683,469.306946 428.354187,469.885071 
z"/>
<path fill="#709F6E" opacity="1.000000" stroke="none" 
	d="
M426.306885,470.668640 
	C426.247070,470.361755 426.484161,470.197571 427.002777,470.105103 
	C427.120300,470.433075 426.893433,470.644592 426.306885,470.668640 
z"/>
<path fill="#709F6E" opacity="1.000000" stroke="none" 
	d="
M419.886200,470.449707 
	C420.075012,470.133301 420.366211,470.174286 420.793518,470.519409 
	C420.949463,470.682709 420.476135,470.836456 420.476135,470.836456 
	C420.476135,470.836456 420.008514,470.666290 419.886200,470.449707 
z"/>
<path fill="#79A372" opacity="1.000000" stroke="none" 
	d="
M234.605103,221.045609 
	C237.060669,219.810226 239.280289,218.195206 241.510300,218.180695 
	C268.823395,218.002945 296.138062,218.077103 323.452240,218.038742 
	C327.970947,218.032394 330.459442,220.367050 330.582062,224.633026 
	C330.821228,232.953094 330.823822,241.289307 330.591034,249.609497 
	C330.483002,253.470169 327.966309,255.727066 324.045105,255.732773 
	C296.398010,255.772980 268.750580,255.791992 241.103821,255.678436 
	C235.793732,255.656616 233.872208,253.517136 233.912704,248.321594 
	C233.982605,239.350296 234.211685,230.380234 234.605103,221.045609 
z"/>
<path fill="#5D7993" opacity="1.000000" stroke="none" 
	d="
M262.000000,140.936752 
	C255.006058,140.937958 248.511032,141.012573 242.018448,140.918686 
	C236.091400,140.832962 233.932495,138.582870 233.913605,132.739258 
	C233.889374,125.246292 233.835098,117.752716 233.903564,110.260399 
	C233.948288,105.365601 235.955887,103.211319 240.884140,103.199211 
	C268.358398,103.131706 295.832916,103.181503 323.307373,103.169731 
	C327.782898,103.167816 330.323456,105.490158 330.440308,109.786659 
	C330.666443,118.102013 330.719543,126.434692 330.437714,134.746399 
	C330.274719,139.553909 326.855713,140.960968 322.444427,140.948776 
	C302.463074,140.893539 282.481506,140.932007 262.000000,140.936752 
z"/>
<path fill="#3781BF" opacity="1.000000" stroke="none" 
	d="
M234.923248,163.768036 
	C235.756638,162.917526 236.590042,162.067001 238.053787,161.462448 
	C239.500198,161.805969 240.316299,161.988861 241.132355,161.988770 
	C269.475220,161.985352 297.818085,161.964676 326.444733,161.869568 
	C326.898407,161.694962 327.068329,161.597229 327.238220,161.499481 
	C327.238220,161.499481 327.319824,161.576752 327.360901,161.885864 
	C327.712769,162.243271 328.023590,162.291580 328.334381,162.339890 
	C328.334381,162.339890 328.532196,162.457367 328.500610,162.816238 
	C328.761444,163.314743 329.053894,163.454361 329.346344,163.593994 
	C329.346344,163.593994 329.376953,163.683121 329.277527,164.202484 
	C329.219452,174.885101 329.260742,185.048340 329.302063,195.211594 
	C329.302032,195.211594 329.118408,195.136429 328.921326,195.237976 
	C328.617004,195.664185 328.509735,195.988861 328.402496,196.313538 
	C328.402496,196.313538 328.330750,196.327560 328.042755,196.340240 
	C327.556610,196.638351 327.358459,196.923752 327.160309,197.209152 
	C327.160309,197.209152 327.070312,197.168503 326.614136,197.096176 
	C296.422791,197.022308 266.687622,197.020782 236.952423,197.019257 
	C236.952423,197.019257 236.995071,196.993484 236.877258,196.778412 
	C236.450760,196.401260 236.142075,196.239151 235.833405,196.077042 
	C235.833405,196.077042 235.937683,196.061188 235.856293,195.853973 
	C235.493378,195.437149 235.211853,195.227509 234.930344,195.017883 
	C234.930344,195.017883 234.996658,195.009918 234.996445,194.565079 
	C234.971909,184.002838 234.947571,173.885437 234.923248,163.768036 
z"/>
<path fill="#7BA373" opacity="1.000000" stroke="none" 
	d="
M181.485107,254.832535 
	C180.201080,252.430328 178.585281,250.261017 178.478577,248.019852 
	C178.130325,240.704987 178.244217,233.362625 178.350876,226.033325 
	C178.436172,220.172943 180.493622,218.154022 186.170532,218.113144 
	C193.834625,218.057968 201.499863,218.037537 209.163651,218.107254 
	C214.615051,218.156845 216.716583,220.225845 216.782883,225.671127 
	C216.876205,233.334351 216.788208,240.999603 216.828812,248.663712 
	C216.848114,252.306656 215.243439,255.470657 211.705795,255.546906 
	C201.760315,255.761307 191.799286,255.254776 181.485107,254.832535 
z"/>
<path fill="#5E7A95" opacity="1.000000" stroke="none" 
	d="
M210.366882,103.190643 
	C215.103775,103.759682 216.697693,106.605705 216.733032,110.527466 
	C216.802094,118.192017 216.866653,125.860802 216.684814,133.521942 
	C216.561768,138.706573 214.332474,140.839813 209.284256,140.907349 
	C201.619873,141.009888 193.952637,141.010986 186.287842,140.933167 
	C180.883820,140.878311 178.595917,138.779419 178.467972,133.416199 
	C178.285187,125.755035 178.309570,118.084770 178.441010,110.421753 
	C178.528885,105.298477 180.670029,103.263123 185.935837,103.195251 
	C193.933441,103.092163 201.933441,103.175529 210.366882,103.190643 
z"/>
<path fill="#3880BF" opacity="1.000000" stroke="none" 
	d="
M216.143845,164.941879 
	C216.212692,174.369751 216.281555,183.797638 215.972900,193.749359 
	C215.504654,194.601639 215.413940,194.930069 215.323212,195.258484 
	C215.323212,195.258484 215.112457,195.163025 214.926208,195.256104 
	C214.653351,195.673309 214.566742,195.997437 214.480133,196.321548 
	C214.480148,196.321548 214.390350,196.395081 214.076599,196.381104 
	C213.560257,196.645233 213.357666,196.923340 213.155060,197.201416 
	C213.155045,197.201416 213.127609,197.196671 212.847565,197.110382 
	C212.372299,197.012665 212.177109,197.001221 211.514404,196.994171 
	C201.339783,197.012741 191.632690,197.026886 181.925583,197.041046 
	C181.925583,197.041046 181.988083,197.008820 181.867172,196.796448 
	C181.425049,196.430130 181.103836,196.276184 180.782639,196.122238 
	C180.782639,196.122238 180.818726,196.248322 180.739639,195.988403 
	C180.357346,195.567154 180.054153,195.405838 179.750946,195.244522 
	C179.750946,195.244522 179.897507,195.121857 179.885040,194.679199 
	C179.771667,184.080551 179.670746,173.924545 179.569824,163.768539 
	C179.569824,163.768539 179.622681,163.690720 179.919830,163.653320 
	C180.291901,163.295807 180.366791,162.975693 180.441681,162.655563 
	C180.441681,162.655563 180.543839,162.546906 180.872742,162.566055 
	C181.360626,162.287476 181.519592,161.989746 181.678558,161.692017 
	C181.678558,161.692017 181.742203,161.666565 182.030853,161.759583 
	C182.516190,161.893036 182.712906,161.933487 183.383850,161.983093 
	C193.260757,161.989792 202.663452,161.987350 212.415085,161.932968 
	C212.991013,161.819382 213.217972,161.757706 213.444946,161.696045 
	C213.444946,161.696045 213.754456,161.779388 213.901291,162.205597 
	C214.503784,162.928192 214.959427,163.224579 215.415070,163.520981 
	C215.415070,163.520981 215.445877,163.620193 215.417480,163.925156 
	C215.640671,164.467377 215.892258,164.704620 216.143845,164.941879 
z"/>
<path fill="#467AA4" opacity="1.000000" stroke="none" 
	d="
M237.254761,197.319977 
	C266.687622,197.020782 296.422791,197.022308 326.635651,197.051727 
	C325.892517,197.424072 324.672333,198.066818 323.450867,198.069199 
	C295.795715,198.123169 268.140381,198.111938 240.485123,198.083679 
	C239.508972,198.082687 238.533112,197.781799 237.254761,197.319977 
z"/>
<path fill="#3C72A3" opacity="1.000000" stroke="none" 
	d="
M326.160950,161.946472 
	C297.818085,161.964676 269.475220,161.985352 241.132355,161.988770 
	C240.316299,161.988861 239.500198,161.805969 238.361877,161.454453 
	C246.485428,161.084763 254.931076,160.888351 263.377106,160.869263 
	C283.940826,160.822784 304.504669,160.858551 325.571655,161.165894 
	C326.074799,161.470612 326.160950,161.946472 326.160950,161.946472 
z"/>
<path fill="#6697BE" opacity="1.000000" stroke="none" 
	d="
M329.613251,194.977722 
	C329.260742,185.048340 329.219452,174.885101 329.299683,164.244080 
	C329.713318,164.150604 330.262909,164.536880 330.259949,164.918900 
	C330.183075,174.860825 330.048798,184.802292 329.613251,194.977722 
z"/>
<path fill="#6697BE" opacity="1.000000" stroke="none" 
	d="
M179.278992,164.019318 
	C179.670746,173.924545 179.771667,184.080551 179.797607,194.717773 
	C179.342499,194.688019 178.628098,194.174713 178.631638,193.666443 
	C178.700195,183.867294 178.852829,174.068756 179.278992,164.019318 
z"/>
<path fill="#467AA4" opacity="1.000000" stroke="none" 
	d="
M234.625214,164.090942 
	C234.947571,173.885437 234.971909,184.002838 234.980255,194.594284 
	C234.603333,193.867126 233.924652,192.663940 233.932053,191.465012 
	C233.987793,182.447495 234.178619,173.430786 234.625214,164.090942 
z"/>
<path fill="#467AA4" opacity="1.000000" stroke="none" 
	d="
M182.215820,197.356842 
	C191.632690,197.026886 201.339783,197.012741 211.513885,197.209595 
	C211.980896,197.420593 211.960236,197.850555 211.960236,197.850555 
	C202.142181,197.791260 192.324127,197.731964 182.215820,197.356842 
z"/>
<path fill="#3C72A3" opacity="1.000000" stroke="none" 
	d="
M212.066132,161.984894 
	C202.663452,161.987350 193.260757,161.989792 183.406403,161.747101 
	C182.954727,161.501953 183.014313,161.031067 183.014313,161.031067 
	C192.360626,160.993378 201.706924,160.955673 211.542908,161.217072 
	C212.032593,161.516174 212.066132,161.984894 212.066132,161.984894 
z"/>
<path fill="#6697BE" opacity="1.000000" stroke="none" 
	d="
M215.337631,163.252396 
	C214.959427,163.224579 214.503784,162.928192 214.013336,162.320206 
	C214.405746,162.333664 214.832977,162.658737 215.337631,163.252396 
z"/>
<path fill="#6697BE" opacity="1.000000" stroke="none" 
	d="
M329.306580,163.387695 
	C329.053894,163.454361 328.761444,163.314743 328.557312,162.916321 
	C328.938721,162.730133 329.145782,162.904770 329.306580,163.387695 
z"/>
<path fill="#6697BE" opacity="1.000000" stroke="none" 
	d="
M182.761658,161.001160 
	C183.014313,161.031067 182.954727,161.501953 182.932159,161.737946 
	C182.712906,161.933487 182.516190,161.893036 182.043762,161.727844 
	C182.015015,161.392456 182.262009,161.181839 182.761658,161.001160 
z"/>
<path fill="#6697BE" opacity="1.000000" stroke="none" 
	d="
M212.415085,161.932968 
	C212.066132,161.984894 212.032593,161.516174 212.006409,161.282669 
	C212.349213,161.111877 212.718201,161.174591 213.266052,161.466675 
	C213.217972,161.757706 212.991013,161.819382 212.415085,161.932968 
z"/>
<path fill="#6697BE" opacity="1.000000" stroke="none" 
	d="
M326.444733,161.869568 
	C326.160950,161.946472 326.074799,161.470612 326.036316,161.231873 
	C326.334717,160.858246 326.651855,160.894684 327.093719,161.300964 
	C327.068329,161.597229 326.898407,161.694962 326.444733,161.869568 
z"/>
<path fill="#6697BE" opacity="1.000000" stroke="none" 
	d="
M181.454895,161.737000 
	C181.519592,161.989746 181.360626,162.287476 180.931091,162.519623 
	C180.739044,162.135208 180.929276,161.911194 181.454895,161.737000 
z"/>
<path fill="#6697BE" opacity="1.000000" stroke="none" 
	d="
M328.241394,162.155014 
	C328.023590,162.291580 327.712769,162.243271 327.402405,161.923721 
	C327.698914,161.646851 327.947418,161.752747 328.241394,162.155014 
z"/>
<path fill="#6697BE" opacity="1.000000" stroke="none" 
	d="
M180.241379,162.745483 
	C180.366791,162.975693 180.291901,163.295807 179.938019,163.609955 
	C179.669479,163.289627 179.796814,163.033432 180.241379,162.745483 
z"/>
<path fill="#6697BE" opacity="1.000000" stroke="none" 
	d="
M212.216766,197.872452 
	C211.960236,197.850555 211.980896,197.420593 211.981400,197.205185 
	C212.177109,197.001221 212.372299,197.012665 212.852386,197.099731 
	C212.915939,197.415039 212.694626,197.654694 212.216766,197.872452 
z"/>
<path fill="#6697BE" opacity="1.000000" stroke="none" 
	d="
M216.150101,164.687744 
	C215.892258,164.704620 215.640671,164.467377 215.452087,163.963898 
	C215.728867,163.942963 215.942612,164.188278 216.150101,164.687744 
z"/>
<path fill="#6697BE" opacity="1.000000" stroke="none" 
	d="
M215.561325,195.132385 
	C215.413940,194.930069 215.504654,194.601639 215.823669,194.133728 
	C215.967773,194.331573 215.883606,194.668930 215.561325,195.132385 
z"/>
<path fill="#6697BE" opacity="1.000000" stroke="none" 
	d="
M179.815887,195.487976 
	C180.054153,195.405838 180.357346,195.567154 180.675552,196.002289 
	C180.420639,196.094559 180.150726,195.912994 179.815887,195.487976 
z"/>
<path fill="#6697BE" opacity="1.000000" stroke="none" 
	d="
M214.692932,196.226410 
	C214.566742,195.997437 214.653351,195.673309 215.017639,195.326965 
	C215.285980,195.637115 215.156113,195.912613 214.692932,196.226410 
z"/>
<path fill="#467AA4" opacity="1.000000" stroke="none" 
	d="
M234.986664,195.290192 
	C235.211853,195.227509 235.493378,195.437149 235.850952,195.906464 
	C235.632324,195.964920 235.337662,195.763702 234.986664,195.290192 
z"/>
<path fill="#6697BE" opacity="1.000000" stroke="none" 
	d="
M328.629089,196.218491 
	C328.509735,195.988861 328.617004,195.664185 328.999115,195.299530 
	C329.265381,195.610886 329.125946,195.898849 328.629089,196.218491 
z"/>
<path fill="#467AA4" opacity="1.000000" stroke="none" 
	d="
M180.871902,196.392120 
	C181.103836,196.276184 181.425049,196.430130 181.864304,196.831482 
	C181.641953,196.939941 181.301559,196.800980 180.871902,196.392120 
z"/>
<path fill="#6697BE" opacity="1.000000" stroke="none" 
	d="
M213.400970,197.178406 
	C213.357666,196.923340 213.560257,196.645233 214.033707,196.420212 
	C214.211578,196.822296 213.992355,197.049652 213.400970,197.178406 
z"/>
<path fill="#467AA4" opacity="1.000000" stroke="none" 
	d="
M235.923401,196.340332 
	C236.142075,196.239151 236.450760,196.401260 236.877106,196.803345 
	C236.667648,196.896774 236.340530,196.750198 235.923401,196.340332 
z"/>
<path fill="#6697BE" opacity="1.000000" stroke="none" 
	d="
M327.412598,197.174042 
	C327.358459,196.923752 327.556610,196.638351 328.030548,196.374695 
	C328.092529,196.643936 327.878693,196.891434 327.412598,197.174042 
z"/>
<path fill="#010101" opacity="1.000000" stroke="none" 
	d="
M41.799034,422.001099 
	C45.028423,406.206177 59.327763,397.831238 71.854660,400.192108 
	C87.797371,403.196686 97.176216,417.669769 94.269737,433.446014 
	C91.355766,449.262970 84.499352,456.046509 69.068741,458.170990 
	C60.485046,459.352814 53.682133,455.513580 48.420696,449.372253 
	C41.821503,441.669525 39.466011,432.524231 41.799034,422.001099 
z"/>
<path fill="#010101" opacity="1.000000" stroke="none" 
	d="
M188.474396,455.912781 
	C173.411621,461.274109 165.481171,448.130280 167.180115,436.662628 
	C168.596207,427.104279 173.723709,422.034058 180.996597,421.861237 
	C189.459808,421.660156 194.711380,425.842957 196.075623,434.301300 
	C197.420334,442.638580 196.592972,450.399750 188.474396,455.912781 
z"/>
<path fill="#030403" opacity="1.000000" stroke="none" 
	d="
M425.827423,443.395447 
	C428.801788,442.849213 431.551544,442.569885 434.651123,442.072815 
	C436.454926,441.995697 437.908966,442.136322 439.294098,442.270264 
	C441.603577,451.738037 434.493805,460.301025 424.346924,460.140503 
	C422.938904,459.730927 421.871002,459.297638 420.469879,458.746063 
	C414.809021,453.433105 417.294189,446.629120 425.827423,443.395447 
z"/>
</svg>